#!OML:ASF F:\VICON\USERDATA\INSTALL\Justin_Nancy\Justin_Nancy.ASF
:FULLY-SPECIFIED
:DEGREES
82
root -9.08649 16.9771 -10.993 -3.40931 -7.78388 4.19379
lowerback 7.72448 0.426504 -5.42632
upperback 0.476255 0.160543 1.6623
thorax -3.86318 0.186602 4.77544
lowerneck -14.3899 -2.11005 -10.2118
upperneck 23.2063 -1.42934 4.04622
head 9.85989 -1.10962 2.95375
rclavicle -3.46134e-014 0
rhumerus -38.6476 -6.72802 -80.6206
rradius 47.429
rwrist -0.817676
rhand -15.9547 11.5904
rfingers 7.12502
rthumb 10.2439 -18.1401
lclavicle -3.46134e-014 0
lhumerus -37.881 5.63313 85.6826
lradius 35.8777
lwrist 2.89332
lhand -17.2451 22.6944
lfingers 7.12502
lthumb 8.99882 52.4825
rfemur -30.742 0.358069 11.728
rtibia 55.1618
rfoot -10.7361 -12.5504
rtoes -2.48407
lfemur -9.30668 -4.864 -30.7293
ltibia 37.4009
lfoot -20.295 2.28255
ltoes 7.40176
83
root -9.09353 16.9769 -10.7503 -3.35243 -7.3941 4.21644
lowerback 7.64463 0.31378 -5.50365
upperback 0.529401 0.00979832 1.68541
thorax -3.74434 0.10817 4.85941
lowerneck -14.4402 -2.16092 -10.1365
upperneck 23.1125 -1.50546 4.01551
head 9.84107 -1.13891 2.91893
rclavicle -3.03147e-014 8.74653e-015
rhumerus -39.0476 -6.90561 -80.3257
rradius 47.4389
rwrist -0.797201
rhand -15.8415 12.9867
rfingers 7.12502
rthumb 10.353 -16.7385
lclavicle -3.03147e-014 8.74653e-015
lhumerus -37.3025 4.86415 85.7776
lradius 36.5129
lwrist 3.70228
lhand -17.0656 23.7764
lfingers 7.12502
lthumb 9.17207 53.5569
rfemur -31.1873 0.679191 11.3116
rtibia 52.0703
rfoot -9.70542 -12.1943
rtoes -2.19818
lfemur -8.03646 -5.23929 -31.0034
ltibia 36.7234
lfoot -20.7023 2.4887
ltoes 7.2368
84
root -9.09794 16.9644 -10.5048 -3.31478 -6.76326 4.53548
lowerback 7.57936 0.171384 -5.75907
upperback 0.579832 -0.201641 1.56838
thorax -3.62825 0.00128393 4.90309
lowerneck -14.6018 -2.2379 -9.9974
upperneck 23.016 -1.61971 3.97782
head 9.84438 -1.18003 2.86599
rclavicle -1.81391e-014 1.43125e-014
rhumerus -39.2611 -7.2523 -80.103
rradius 47.3767
rwrist -0.675313
rhand -15.8471 13.3333
rfingers 7.12502
rthumb 10.3477 -16.3921
lclavicle -1.81391e-014 1.43125e-014
lhumerus -36.7694 4.26056 85.7312
lradius 37.3852
lwrist 4.27554
lhand -14.5427 30.7101
lfingers 7.12502
lthumb 11.6058 60.3687
rfemur -31.4983 0.796369 10.4495
rtibia 48.866
rfoot -8.12003 -11.5527
rtoes -3.13779
lfemur -6.72217 -5.7771 -31.6388
ltibia 35.9939
lfoot -21.09 2.70963
ltoes 6.86937
85
root -9.10419 16.9491 -10.2609 -3.07342 -6.06363 4.75555
lowerback 7.41183 -0.0990352 -6.03679
upperback 0.447445 -0.57697 1.59163
thorax -3.62194 -0.177432 5.12344
lowerneck -14.4949 -2.17598 -10.1877
upperneck 22.9863 -1.52389 4.08711
head 9.80867 -1.1401 2.94845
rclavicle 7.77745e-015 -1.19271e-014
rhumerus -39.7483 -7.13912 -79.8279
rradius 47.5225
rwrist -0.485998
rhand -15.6004 11.7561
rfingers 7.12502
rthumb 10.5856 -17.9573
lclavicle 7.77745e-015 -1.19271e-014
lhumerus -36.8143 4.21355 85.6032
lradius 38.3445
lwrist 4.20508
lhand -12.3913 36.9486
lfingers 7.12502
lthumb 13.6799 66.479
rfemur -31.9113 0.911118 9.62566
rtibia 45.5236
rfoot -6.14992 -10.7241
rtoes -5.86146
lfemur -5.6109 -6.38241 -32.1296
ltibia 35.2571
lfoot -21.4313 2.8243
ltoes 6.54648
86
root -9.11404 16.9329 -10.0177 -2.84976 -5.59978 4.9839
lowerback 7.17153 -0.228382 -6.35093
upperback 0.459497 -0.760051 1.58278
thorax -3.44645 -0.270209 5.30688
lowerneck -14.7838 -2.1986 -10.2245
upperneck 23.0318 -1.52488 4.13538
head 9.88039 -1.13681 2.97237
rclavicle 2.6339e-015 4.77083e-015
rhumerus -40.0895 -6.98725 -79.6733
rradius 47.9431
rwrist -0.281757
rhand -15.4088 8.56944
rfingers 7.12502
rthumb 10.7704 -21.1344
lclavicle 2.6339e-015 4.77083e-015
lhumerus -36.2831 4.06706 85.4343
lradius 38.7328
lwrist 3.80193
lhand -14.3149 32.4768
lfingers 7.12502
lthumb 11.8255 62.1229
rfemur -32.3539 1.45209 8.73812
rtibia 42.1252
rfoot -4.63872 -10.0706
rtoes -7.02184
lfemur -4.50616 -6.87845 -32.6011
ltibia 34.4994
lfoot -21.7684 3.02106
ltoes 6.39974
87
root -9.1229 16.9132 -9.77071 -2.77431 -5.31682 5.1671
lowerback 7.04291 -0.219633 -6.5614
upperback 0.530299 -0.756592 1.53827
thorax -3.29883 -0.273113 5.37626
lowerneck -15.3868 -2.28656 -10.1002
upperneck 23.362 -1.60649 4.10563
head 10.1185 -1.16967 2.93586
rclavicle 3.15571e-015 3.97569e-015
rhumerus -40.3814 -7.06833 -79.4554
rradius 48.2971
rwrist 0.0402816
rhand -15.2769 7.85825
rfingers 7.12502
rthumb 10.8977 -21.839
lclavicle 3.15571e-015 3.97569e-015
lhumerus -35.5235 3.76347 85.2593
lradius 38.7252
lwrist 3.39166
lhand -15.6788 28.599
lfingers 7.12502
lthumb 10.51 58.3163
rfemur -32.4841 2.33595 7.80519
rtibia 38.6538
rfoot -4.54618 -9.77532
rtoes -4.20929
lfemur -3.27713 -7.13217 -33.0181
ltibia 33.8346
lfoot -22.0889 3.08993
ltoes 6.49814
88
root -9.13081 16.8864 -9.52599 -2.69169 -4.86462 5.42055
lowerback 6.97188 -0.301135 -6.89055
upperback 0.566536 -0.885502 1.52729
thorax -3.19834 -0.337641 5.56233
lowerneck -15.8389 -2.33376 -10.1974
upperneck 23.6203 -1.61516 4.17778
head 10.3008 -1.17619 2.98137
rclavicle 1.52567e-014 2.46493e-014
rhumerus -40.7555 -7.05981 -79.1841
rradius 48.6857
rwrist -0.0472691
rhand -15.1278 7.65375
rfingers 7.12502
rthumb 11.0415 -22.0358
lclavicle 1.52567e-014 2.46493e-014
lhumerus -35.0965 3.81862 85.0901
lradius 38.9529
lwrist 2.70504
lhand -16.0889 27.9023
lfingers 7.12502
lthumb 10.1144 57.6392
rfemur -32.4241 3.14448 6.72938
rtibia 35.1904
rfoot -4.16522 -9.1842
rtoes -5.90804
lfemur -2.08331 -7.49115 -33.5053
ltibia 33.2589
lfoot -22.5184 3.09834
ltoes 6.85378
89
root -9.13863 16.86 -9.28533 -2.48516 -4.43697 5.28891
lowerback 6.8157 -0.394047 -6.82128
upperback 0.53024 -0.990956 1.61045
thorax -3.13279 -0.392115 5.61745
lowerneck -15.7257 -2.37895 -10.2321
upperneck 23.4343 -1.67493 4.15814
head 10.2174 -1.20528 2.96877
rclavicle -8.99501e-015 -8.74653e-015
rhumerus -41.252 -6.98476 -78.8896
rradius 48.9274
rwrist -0.25372
rhand -15.021 7.67139
rfingers 7.12502
rthumb 11.1445 -22.0127
lclavicle -8.99501e-015 -8.74653e-015
lhumerus -34.9271 3.68024 84.9436
lradius 39.4119
lwrist 2.43428
lhand -16.5023 28.1415
lfingers 7.12502
lthumb 9.71553 57.8974
rfemur -32.3531 4.13534 5.99703
rtibia 31.7967
rfoot -4.39531 -8.58134
rtoes -8.01198
lfemur -1.06792 -7.95023 -33.5775
ltibia 32.7895
lfoot -22.9484 3.32242
ltoes 6.37889
90
root -9.15304 16.8302 -9.04378 -2.39533 -3.92506 5.1192
lowerback 6.72364 -0.483617 -6.80136
upperback 0.552983 -1.09819 1.71871
thorax -3.03979 -0.44954 5.72748
lowerneck -15.6469 -2.43294 -10.1629
upperneck 23.2817 -1.7463 4.04073
head 10.1521 -1.24234 2.90285
rclavicle -1.11816e-015 3.18055e-015
rhumerus -41.5522 -7.08699 -78.5505
rradius 48.9148
rwrist -0.13189
rhand -15.2912 9.93779
rfingers 7.12502
rthumb 10.8839 -19.7601
lclavicle -1.11816e-015 3.18055e-015
lhumerus -34.7398 3.74675 84.7568
lradius 39.7727
lwrist 2.05227
lhand -16.9638 27.0318
lfingers 7.12502
lthumb 9.27032 56.808
rfemur -32.102 5.20071 5.22941
rtibia 28.569
rfoot -4.88107 -8.04173
rtoes -9.57177
lfemur 0.0148162 -8.24109 -33.5344
ltibia 32.4005
lfoot -23.2309 3.28848
ltoes 5.84737
91
root -9.16498 16.7933 -8.80024 -2.32813 -3.24416 5.17491
lowerback 6.62811 -0.57416 -6.93074
upperback 0.602213 -1.22068 1.7128
thorax -2.91401 -0.515486 5.80238
lowerneck -15.5679 -2.52934 -10.1414
upperneck 23.139 -1.89445 4.04049
head 10.0974 -1.30563 2.87715
rclavicle -1.80894e-014 -5.56597e-015
rhumerus -41.7564 -7.43397 -78.253
rradius 48.901
rwrist 0.0257231
rhand -15.5659 11.1508
rfingers 7.12502
rthumb 10.619 -18.5609
lclavicle -1.80894e-014 -5.56597e-015
lhumerus -34.4324 3.66884 84.5787
lradius 39.9571
lwrist 1.81074
lhand -17.5561 27.1702
lfingers 7.12502
lthumb 8.69869 56.9709
rfemur -31.7018 6.18084 4.10578
rtibia 25.4659
rfoot -5.88845 -7.59158
rtoes -10.4217
lfemur 1.04811 -8.5553 -33.7111
ltibia 32.1592
lfoot -23.5131 2.95397
ltoes 5.40454
92
root -9.16928 16.7548 -8.55515 -2.10747 -2.51862 5.2101
lowerback 6.46582 -0.686328 -6.8758
upperback 0.542926 -1.35818 1.64697
thorax -2.86695 -0.585127 5.70963
lowerneck -15.5698 -2.6009 -10.0481
upperneck 23.1193 -2.00683 3.99399
head 10.0981 -1.35376 2.8296
rclavicle -2.36057e-015 1.19271e-014
rhumerus -42.2117 -7.63401 -78.0449
rradius 48.9851
rwrist 0.159171
rhand -15.8956 10.927
rfingers 7.12502
rthumb 10.3008 -18.8007
lclavicle -2.36057e-015 1.19271e-014
lhumerus -34.0618 3.54004 84.3191
lradius 39.867
lwrist 1.53472
lhand -18.1524 27.7171
lfingers 7.12502
lthumb 8.1233 57.541
rfemur -31.4358 6.86104 2.98482
rtibia 22.6439
rfoot -5.90432 -6.91423
rtoes -12.4532
lfemur 1.90849 -8.8984 -33.8585
ltibia 32.02
lfoot -23.947 2.64156
ltoes 4.41551
93
root -9.17271 16.7163 -8.30862 -1.8898 -1.86103 5.13868
lowerback 6.32666 -0.82404 -6.7323
upperback 0.446507 -1.52331 1.67419
thorax -2.86778 -0.666244 5.66767
lowerneck -15.544 -2.59726 -10.0694
upperneck 23.1157 -1.98704 3.9513
head 10.0907 -1.35125 2.82056
rclavicle 2.23881e-014 -6.36111e-015
rhumerus -42.7225 -7.39506 -77.829
rradius 49.1566
rwrist 0.317698
rhand -16.1667 10.6938
rfingers 7.12502
rthumb 10.0393 -19.0467
lclavicle 2.23881e-014 -6.36111e-015
lhumerus -33.8704 3.70152 84.0848
lradius 39.8236
lwrist 1.0777
lhand -18.7519 27.1693
lfingers 7.12502
lthumb 7.54464 57.0147
rfemur -31.2217 7.62107 1.99821
rtibia 20.2414
rfoot -6.05634 -6.02531
rtoes -13.7479
lfemur 2.62057 -9.20899 -33.8925
ltibia 32.0293
lfoot -24.2632 2.24181
ltoes 3.66009
94
root -9.17764 16.6773 -8.06251 -1.90931 -1.12567 5.08245
lowerback 6.43039 -0.95081 -6.65835
upperback 0.353053 -1.69543 1.70129
thorax -2.99944 -0.74495 5.67281
lowerneck -15.0529 -2.58631 -10.1973
upperneck 22.8838 -2.02301 4.07668
head 9.91963 -1.36319 2.87963
rclavicle -2.28851e-014 2.38542e-014
rhumerus -43.4474 -7.09977 -77.6064
rradius 49.5313
rwrist 0.389896
rhand -15.9326 10.2557
rfingers 7.12502
rthumb 10.2651 -19.4738
lclavicle -2.28851e-014 2.38542e-014
lhumerus -33.9621 3.74558 83.9247
lradius 39.9996
lwrist 0.969217
lhand -19.1703 26.2672
lfingers 7.12502
lthumb 7.14077 56.1268
rfemur -30.7313 7.96264 1.29102
rtibia 18.3349
rfoot -6.55535 -4.64279
rtoes -14.2321
lfemur 3.50209 -9.49479 -33.9733
ltibia 32.2658
lfoot -24.5767 1.9287
ltoes 2.81092
95
root -9.18136 16.6272 -7.82794 -2.00793 -0.278367 4.93431
lowerback 6.72023 -1.1068 -6.51338
upperback 0.275305 -1.91095 1.78049
thorax -3.2136 -0.84322 5.70296
lowerneck -14.7961 -2.57271 -10.1981
upperneck 22.89 -2.01326 3.99969
head 9.87225 -1.36956 2.85443
rclavicle -2.30342e-014 7.95139e-016
rhumerus -43.9674 -6.80079 -77.3659
rradius 49.6909
rwrist 0.39101
rhand -15.8153 9.79261
rfingers 7.12502
rthumb 10.3783 -19.9313
lclavicle -2.30342e-014 7.95139e-016
lhumerus -34.0073 3.87649 83.8132
lradius 40.3044
lwrist 1.80562
lhand -19.3003 26.4172
lfingers 7.12502
lthumb 7.01526 56.281
rfemur -30.097 7.92512 0.905459
rtibia 16.8692
rfoot -7.03323 -3.20456
rtoes -13.0076
lfemur 4.39695 -9.86871 -33.957
ltibia 32.8224
lfoot -25.0239 1.87366
ltoes 1.7264
